<svg width="155px" height="30px" id="White" xmlns="http://www.w3.org/2000/svg" viewBox="0 0 403.2322 77.87988">
  <defs>
    <style>
      .cls-1 {
        fill: #4D4D4D;
      }
    </style>
  </defs>
  <title>logo_AltairOne</title>
  <g>
    <path class="cls-1" d="M43.79443,61.08887,39.16162,49.72412H17.73486L13.10205,61.08887H1.7373L23.45361,10.05566h10.2793L55.44873,61.08887ZM28.44824,23.44727,21.71631,39.87939H35.18018Z"/>
    <path class="cls-1" d="M62.60889,61.08887V8.24561H73.61182V61.08887Z"/>
    <path class="cls-1" d="M97.062,61.74023c-6.73193,0-11.29248-2.67822-11.29248-11.65429V31.69971H81.13672V22.28906h4.63281v-9.917H96.77246v9.917h9.12109v9.41065H96.77246V48.27637c0,2.53369,1.08594,3.76416,3.54736,3.76416a11.18977,11.18977,0,0,0,5.42872-1.37549v8.83154A16.22415,16.22415,0,0,1,97.062,61.74023Z"/>
    <path class="cls-1" d="M136.72705,61.08887V56.89014A14.91793,14.91793,0,0,1,125,61.813c-7.311,0-13.31934-4.19873-13.31934-11.87207v-.14453c0-8.46924,6.44239-12.37842,15.63575-12.37842a27.576,27.576,0,0,1,9.48291,1.59277v-.65185c0-4.56006-2.82325-7.09375-8.32471-7.09375a28.544,28.544,0,0,0-10.71338,2.09912l-2.751-8.397A34.238,34.238,0,0,1,130.06689,21.855c12.01661,0,17.30079,6.2251,17.30079,16.72119v22.5127Zm.2168-15.63575a17.05979,17.05979,0,0,0-7.02149-1.44775c-4.70507,0-7.60058,1.88184-7.60058,5.35645v.145c0,2.96777,2.46093,4.70507,6.00781,4.70507,5.13965,0,8.61426-2.82275,8.61426-6.8042Z"/>
    <path class="cls-1" d="M157.063,18.01807V8.24561h11.582v9.77246Zm.28955,43.0708V22.28906h11.00293V61.08887Z"/>
    <path class="cls-1" d="M201.50586,33.07471c-7.311,0-11.79932,4.416-11.79932,13.68164V61.08887H178.70361V22.28906h11.00293v7.81787c2.24414-5.35644,5.86328-8.831,12.37842-8.542V33.07471Z"/>
    <path class="cls-1" d="M256.44189,61.95752c-15.63574,0-26.85546-11.6543-26.85546-26.05957v-.14453c0-14.40528,11.36425-26.20459,27-26.20459s26.85644,11.65429,26.85644,26.05957v.145C283.44287,50.1582,272.07764,61.95752,256.44189,61.95752Zm15.34571-26.2041c0-8.68653-6.36914-15.92578-15.34571-15.92578s-15.20117,7.09424-15.20117,15.78076v.145c0,8.68652,6.37012,15.9248,15.34571,15.9248,8.97656,0,15.20117-7.09375,15.20117-15.78027Z"/>
    <path class="cls-1" d="M316.73389,61.08887v-21.644c0-5.21191-2.46094-7.89013-6.66016-7.89013-4.19824,0-6.876,2.67822-6.876,7.89013V61.08887h-11.0039V22.28906h11.0039v5.50147c2.53321-3.25733,5.791-6.22559,11.36426-6.22559,8.3252,0,13.17481,5.502,13.17481,14.40527V61.08887Z"/>
    <path class="cls-1" d="M373.335,45.52539H346.334c1.08594,4.99463,4.56055,7.60107,9.48243,7.60107,3.69238,0,6.37109-1.1582,9.41113-3.98144l6.29785,5.57373c-3.62012,4.48779-8.832,7.23877-15.85351,7.23877-11.6543,0-20.26807-8.17969-20.26807-20.05127v-.145c0-11.07519,7.89014-20.19629,19.18213-20.19629,12.958,0,18.89355,10.062,18.89355,21.06494v.145C373.47949,43.86084,373.40723,44.51221,373.335,45.52539Zm-18.749-15.12891c-4.56055,0-7.52832,3.25733-8.39649,8.25245h16.57617C362.11426,33.72607,359.21875,30.39648,354.58594,30.39648Z"/>
    <path class="cls-1" d="M381.11523,17.62939h-1.63281V11.894h-2.14453v-1.4458h5.92188V11.894h-2.14454Zm7.32032-1.70214h-.13965l-1.98145-3.14746v4.8496h-1.53906V10.44824H386.501l1.88769,3.03076,1.88867-3.03076h1.67871v7.18115H390.418v-4.8496Z"/>
  </g>
</svg>
