<svg xmlns="http://www.w3.org/2000/svg" viewBox="0 0 622 80">
  <g id="Wordmarks">
    <g>
      <path d="M23.33008,10.32422H33.55469l21.602,50.76367H43.564L38.95557,49.7832H17.6416L13.0332,61.08789H1.728Zm11.665,29.666-6.69678-16.3457L21.602,39.99023Z" fill="#393939"/>
      <path d="M62.27979,8.52344H73.22461V61.08789H62.27979Z" fill="#393939"/>
      <path d="M85.31934,50.14355v-18.29h-4.6084V22.49316h4.6084V12.62891H96.26416v9.86425h9.07275v9.36036H96.26416V48.34375c0,2.51953,1.08008,3.74414,3.52832,3.74414a11.12891,11.12891,0,0,0,5.40039-1.36816v8.78418a16.12593,16.12593,0,0,1-8.64062,2.23242C89.85547,61.73633,85.31934,59.07227,85.31934,50.14355Z" fill="#393939"/>
      <path d="M111.09424,50v-.14453c0-8.42481,6.40869-12.3125,15.55322-12.3125a27.41789,27.41789,0,0,1,9.43311,1.584v-.64843c0-4.53711-2.8086-7.05664-8.28077-7.05664a28.39456,28.39456,0,0,0-10.65722,2.08789l-2.73633-8.35254a34.05448,34.05448,0,0,1,14.97754-3.09668c5.97656,0,10.29687,1.584,13.0332,4.32031,2.88037,2.88086,4.17627,7.12891,4.17627,12.31348V61.08789h-10.585V56.91211a14.83946,14.83946,0,0,1-11.665,4.89648C117.0708,61.80859,111.09424,57.63184,111.09424,50Zm25.12988-2.52148V45.53516a16.96689,16.96689,0,0,0-6.98437-1.44043c-4.68018,0-7.56055,1.87207-7.56055,5.3291v.14355c0,2.95215,2.44824,4.68067,5.97656,4.68067C132.76807,54.24805,136.22412,51.43945,136.22412,47.47852Z" fill="#393939"/>
      <path d="M156.23779,8.52344h11.521v9.7207h-11.521Zm.28809,13.96972H167.4707V61.08789H156.52588Z" fill="#393939"/>
      <path d="M177.76514,22.49316H188.71v7.77637c2.23242-5.32812,5.83252-8.78515,12.313-8.49609V33.22266h-.57568c-7.273,0-11.73731,4.3916-11.73731,13.60839V61.08789H177.76514Z" fill="#393939"/>
      <path d="M227.15576,53.74414l6.55274-7.84961c4.53711,3.74414,9.28906,6.12109,15.0498,6.12109,4.53613,0,7.27246-1.80078,7.27246-4.752v-.14453c0-2.80859-1.72851-4.248-10.15332-6.4082-10.15234-2.59278-16.70508-5.40039-16.70508-15.41016v-.14355c0-9.14453,7.34473-15.19336,17.6416-15.19336a29.17122,29.17122,0,0,1,18.72168,6.40918l-5.76074,8.35156c-4.46386-3.0957-8.85644-4.96777-13.10547-4.96777-4.248,0-6.48047,1.94433-6.48047,4.39257V24.293c0,3.3125,2.16016,4.39258,10.873,6.625,10.22559,2.66406,15.98535,6.33594,15.98535,15.12109v.14453c0,10.00782-7.63281,15.625-18.50488,15.625A32.07726,32.07726,0,0,1,227.15576,53.74414Z" fill="#393939"/>
      <path d="M275.75635,8.52344h11.52148v9.7207H275.75635Zm.28808,13.96972h10.94532V61.08789H276.04443Z" fill="#393939"/>
      <path d="M297.28369,22.49316H308.229v5.47168c2.51954-3.24023,5.832-6.1914,11.377-6.1914,5.04052,0,8.85693,2.23242,10.87256,6.12011,3.38476-3.96,7.416-6.12011,12.67382-6.12011,8.13672,0,13.03321,4.89648,13.03321,14.18457V61.08789H345.24023V39.55859c0-5.18457-2.30468-7.84863-6.4082-7.84863-4.10547,0-6.625,2.66406-6.625,7.84863v21.5293H321.26172V39.55859c0-5.18457-2.3042-7.84863-6.40869-7.84863s-6.624,2.66406-6.624,7.84863v21.5293H297.28369Z" fill="#393939"/>
      <path d="M365.39453,47.47852V22.49316h10.94531V44.02344c0,5.18359,2.44922,7.84765,6.625,7.84765s6.83985-2.66406,6.83985-7.84765V22.49316H400.75V61.08789H389.80469V55.61523c-2.51953,3.24024-5.75977,6.19336-11.30469,6.19336C370.21875,61.80859,365.39453,56.33594,365.39453,47.47852Z" fill="#393939"/>
      <path d="M411.041,8.52344h10.94531V61.08789H411.041Z" fill="#393939"/>
      <path d="M429.97656,50v-.14453c0-8.42481,6.40821-12.3125,15.55274-12.3125a27.41867,27.41867,0,0,1,9.43359,1.584v-.64843c0-4.53711-2.80859-7.05664-8.28125-7.05664a28.38946,28.38946,0,0,0-10.65625,2.08789l-2.73633-8.35254a34.04835,34.04835,0,0,1,14.97656-3.09668c5.97657,0,10.29688,1.584,13.03321,4.32031,2.88086,2.88086,4.17578,7.12891,4.17578,12.31348V61.08789h-10.584V56.91211a14.838,14.838,0,0,1-11.66406,4.89648C435.95312,61.80859,429.97656,57.63184,429.97656,50Zm25.13086-2.52148V45.53516a16.973,16.973,0,0,0-6.98633-1.44043c-4.67968,0-7.56054,1.87207-7.56054,5.3291v.14355c0,2.95215,2.44922,4.68067,5.97656,4.68067C451.65039,54.24805,455.10742,51.43945,455.10742,47.47852Z" fill="#393939"/>
      <path d="M476.3457,50.14355v-18.29h-4.60937V22.49316h4.60937V12.62891H487.291v9.86425h9.07226v9.36036H487.291V48.34375c0,2.51953,1.08007,3.74414,3.52734,3.74414a11.13032,11.13032,0,0,0,5.40039-1.36816v8.78418a16.12842,16.12842,0,0,1-8.64063,2.23242C480.88281,61.73633,476.3457,59.07227,476.3457,50.14355Z" fill="#393939"/>
      <path d="M504.64062,8.52344h11.52149v9.7207H504.64062Zm.28907,13.96972H515.875V61.08789H504.92969Z" fill="#393939"/>
      <path d="M524.29688,42.00684v-.14356c0-11.08984,8.92773-20.08984,20.95312-20.08984,11.95312,0,20.81055,8.85644,20.81055,19.94531v.14453c0,11.08789-8.92969,20.08984-20.95508,20.08984C533.15234,61.95312,524.29688,53.0957,524.29688,42.00684Zm30.96289,0v-.14356c0-5.68945-4.10547-10.6582-10.1543-10.6582-6.26367,0-10.00781,4.82519-10.00781,10.51367v.14453c0,5.6875,4.10351,10.65625,10.15234,10.65625C551.51367,52.51953,555.25977,47.69531,555.25977,42.00684Z" fill="#393939"/>
      <path d="M573.97461,22.49316h10.94531v5.47168c2.51953-3.24023,5.75977-6.1914,11.30469-6.1914,8.28125,0,13.10547,5.47265,13.10547,14.32812V61.08789H598.38477V39.55859c0-5.18457-2.44727-7.84863-6.625-7.84863-4.17579,0-6.83985,2.66406-6.83985,7.84863v21.5293H573.97461Z" fill="#393939"/>
    </g>
  </g>
</svg>
